<svg width="151" height="52" viewBox="0 0 151 52" fill="none" xmlns="http://www.w3.org/2000/svg">
<path d="M52.55 28.3V36H56.4C57.456 36 58.413 35.571 59.106 34.867C59.183 34.79 59.26 34.713 59.326 34.636C59.898 33.965 60.239 33.096 60.239 32.15C60.239 30.027 58.512 28.311 56.389 28.311L52.55 28.3ZM53.914 29.686H56.389C57.753 29.686 58.864 30.797 58.864 32.161C58.864 33.525 57.753 34.636 56.389 34.636H53.914V29.686ZM64.0869 29.675H69.7079V28.3H64.0869C62.9429 28.3 62.0189 29.235 62.0189 30.379V33.921C62.0189 35.065 62.9429 36 64.0869 36H69.7079V34.625H64.0869C63.7019 34.625 63.3829 34.306 63.3829 33.921V32.469H68.3329V31.094H63.3829V30.379C63.3829 29.994 63.7019 29.675 64.0869 29.675ZM77.3287 28.3L76.6247 29.675L74.9417 32.975L73.2587 29.675L72.5547 28.3H71.0147L71.7187 29.675L74.9417 36L78.1647 29.675L78.8687 28.3H77.3287ZM83.7898 28.3C81.6668 28.3 79.9398 30.027 79.9398 32.15C79.9398 34.273 81.6668 36 83.7898 36C85.9128 36 87.6398 34.273 87.6398 32.15C87.6398 30.027 85.9128 28.3 83.7898 28.3ZM83.7898 34.625C82.4258 34.625 81.3148 33.514 81.3148 32.15C81.3148 30.786 82.4258 29.675 83.7898 29.675C85.1538 29.675 86.2648 30.786 86.2648 32.15C86.2648 33.514 85.1538 34.625 83.7898 34.625ZM95.4603 28.905C95.0863 28.531 94.5693 28.3 93.9973 28.3H89.1463V36H90.5213V32.458H94.2063V32.447C94.2283 32.447 94.2503 32.447 94.2723 32.447C94.4813 32.425 94.6793 32.37 94.8663 32.282C95.5813 31.952 96.0763 31.226 96.0763 30.39C96.0763 29.818 95.8453 29.301 95.4713 28.916L95.4603 28.905ZM94.2943 31.028C94.2063 31.072 94.1073 31.094 94.0083 31.094H90.5213V29.675H94.0083C94.2503 29.675 94.4153 29.785 94.5033 29.873C94.5803 29.95 94.7123 30.126 94.7123 30.379C94.7123 30.654 94.5473 30.907 94.2943 31.017V31.028ZM105.112 30.423V30.379C105.112 29.235 104.177 28.3 103.033 28.3H99.9095C98.7655 28.3 97.8415 29.235 97.8415 30.379V30.423C97.8415 30.863 97.9735 31.27 98.2045 31.6C98.2815 31.721 98.3695 31.831 98.4685 31.93C98.8425 32.293 99.3485 32.513 99.9095 32.513H102.681C103.264 32.513 103.748 32.986 103.748 33.569C103.748 34.152 103.264 34.625 102.681 34.625H100.272C99.6895 34.625 99.2165 34.152 99.2165 33.569H97.8415C97.8415 34.911 98.9305 36 100.272 36H102.681C104.023 36 105.112 34.911 105.112 33.569C105.112 32.986 104.903 32.447 104.562 32.029C104.529 31.996 104.507 31.963 104.474 31.93C104.034 31.446 103.396 31.138 102.681 31.138H99.9095C99.5245 31.138 99.2055 30.819 99.2055 30.434V30.39C99.2055 30.005 99.5245 29.686 99.9095 29.686H103.033C103.418 29.686 103.737 30.005 103.737 30.39V30.434L105.112 30.423Z" fill="#012840"/>
<path d="M57.15 3.1C58.7 3.96667 60.2333 4.84167 61.75 5.725C63.2667 6.60833 64.7833 7.48333 66.3 8.35C65.85 8.65 65.4083 8.925 64.975 9.175C64.5417 9.40833 64.0833 9.65833 63.6 9.925C62.55 9.325 61.4833 8.71667 60.4 8.1C59.3333 7.46667 58.275 6.85 57.225 6.25C56.125 6.85 55.0333 7.46667 53.95 8.1C52.8833 8.73333 51.8 9.36667 50.7 10V17.425C50.9667 17.575 51.2417 17.725 51.525 17.875C51.8083 18.025 52.0833 18.175 52.35 18.325C53.15 18.775 53.95 19.25 54.75 19.75C55.55 20.25 56.35 20.725 57.15 21.175C58.25 20.5417 59.3333 19.9167 60.4 19.3C61.4833 18.6833 62.55 18.0583 63.6 17.425L66.3 19C64.7833 19.9 63.2667 20.7833 61.75 21.65C60.25 22.5333 58.7417 23.425 57.225 24.325C55.6417 23.425 54.0917 22.5333 52.575 21.65C51.075 20.7833 49.55 19.9 48 19V13.375V8.425C49.5167 7.525 51.0417 6.64167 52.575 5.775C54.1083 4.89167 55.6333 4 57.15 3.1ZM74.0222 9.46C74.9522 10 75.8722 10.535 76.7822 11.065C77.7022 11.585 78.6272 12.115 79.5572 12.655C79.5072 14.735 79.5072 16.835 79.5572 18.955C79.5072 18.955 79.4672 18.945 79.4372 18.925C79.4172 18.905 79.3822 18.885 79.3322 18.865C79.1022 18.725 78.8672 18.59 78.6272 18.46C78.3872 18.33 78.1422 18.195 77.8922 18.055V14.14C77.8922 14.07 77.8972 13.98 77.9072 13.87C77.9172 13.76 77.9122 13.67 77.8922 13.6C77.8922 13.58 77.8722 13.555 77.8322 13.525C77.7922 13.495 77.7472 13.47 77.6972 13.45C77.6472 13.42 77.5972 13.395 77.5472 13.375C77.4972 13.355 77.4622 13.34 77.4422 13.33C76.8722 12.99 76.3022 12.66 75.7322 12.34C75.1622 12.02 74.5922 11.69 74.0222 11.35C73.3922 11.71 72.7522 12.08 72.1022 12.46C71.4622 12.84 70.8122 13.22 70.1522 13.6V18.055C70.7422 18.415 71.3372 18.765 71.9372 19.105C72.5472 19.455 73.1672 19.81 73.7972 20.17C73.8172 20.19 73.8522 20.215 73.9022 20.245C73.9622 20.285 74.0022 20.305 74.0222 20.305C74.0422 20.305 74.0772 20.285 74.1272 20.245C74.1872 20.215 74.2422 20.19 74.2922 20.17C74.6322 19.97 74.9572 19.775 75.2672 19.585C75.5872 19.405 75.9072 19.225 76.2272 19.045C76.4972 19.185 76.7722 19.335 77.0522 19.495C77.3322 19.665 77.5972 19.83 77.8472 19.99C77.2172 20.35 76.5772 20.715 75.9272 21.085C75.2872 21.465 74.6522 21.835 74.0222 22.195C73.0922 21.655 72.1722 21.12 71.2622 20.59C70.3522 20.07 69.4422 19.54 68.5322 19V12.655C69.4422 12.135 70.3522 11.61 71.2622 11.08C72.1722 10.54 73.0922 10 74.0222 9.46ZM79.5572 19C79.5072 19.65 79.5072 20.28 79.5572 20.89C78.9872 20.6 78.4322 20.29 77.8922 19.96C77.3522 19.64 76.8122 19.32 76.2722 19C76.5422 18.84 76.8122 18.69 77.0822 18.55C77.3522 18.41 77.6222 18.26 77.8922 18.1C78.1622 18.24 78.4322 18.39 78.7022 18.55C78.9822 18.71 79.2672 18.86 79.5572 19ZM89.6646 3.1C91.2146 3.96667 92.748 4.84167 94.2646 5.725C95.7813 6.60833 97.298 7.48333 98.8146 8.35C98.3646 8.65 97.923 8.925 97.4896 9.175C97.0563 9.40833 96.598 9.65833 96.1146 9.925C95.0646 9.325 93.998 8.71667 92.9146 8.1C91.848 7.46667 90.7896 6.85 89.7396 6.25C88.6396 6.85 87.548 7.46667 86.4646 8.1C85.398 8.73333 84.3146 9.36667 83.2146 10V17.425C83.4813 17.575 83.7563 17.725 84.0396 17.875C84.323 18.025 84.598 18.175 84.8646 18.325C85.6646 18.775 86.4646 19.25 87.2646 19.75C88.0646 20.25 88.8646 20.725 89.6646 21.175C90.7646 20.5417 91.848 19.9167 92.9146 19.3C93.998 18.6833 95.0646 18.0583 96.1146 17.425L98.8146 19C97.298 19.9 95.7813 20.7833 94.2646 21.65C92.7646 22.5333 91.2563 23.425 89.7396 24.325C88.1563 23.425 86.6063 22.5333 85.0896 21.65C83.5896 20.7833 82.0646 19.9 80.5146 19V13.375V8.425C82.0313 7.525 83.5563 6.64167 85.0896 5.775C86.623 4.89167 88.148 4 89.6646 3.1ZM106.537 9.7C107.487 10.22 108.412 10.75 109.312 11.29C110.222 11.82 111.142 12.355 112.072 12.895C112.052 13.915 112.047 14.93 112.057 15.94C112.067 16.95 112.072 17.975 112.072 19.015V19.195C112.052 19.245 112.002 19.29 111.922 19.33C111.852 19.37 111.782 19.4 111.712 19.42C110.872 19.92 110.022 20.415 109.162 20.905C108.302 21.395 107.442 21.89 106.582 22.39C105.652 21.87 104.727 21.34 103.807 20.8C102.897 20.27 101.977 19.735 101.047 19.195C101.067 18.105 101.072 17.08 101.062 16.12C101.052 15.16 101.047 14.205 101.047 13.255V12.895C101.067 12.875 101.117 12.84 101.197 12.79C101.287 12.73 101.357 12.69 101.407 12.67C101.817 12.44 102.212 12.215 102.592 11.995C102.982 11.775 103.382 11.55 103.792 11.32C104.272 11.03 104.737 10.755 105.187 10.495C105.637 10.235 106.087 9.97 106.537 9.7ZM102.667 13.84V18.295C103.327 18.675 103.977 19.05 104.617 19.42C105.267 19.79 105.907 20.165 106.537 20.545C107.127 20.205 107.702 19.875 108.262 19.555C108.822 19.235 109.387 18.905 109.957 18.565C109.977 18.555 110.012 18.54 110.062 18.52C110.112 18.49 110.162 18.46 110.212 18.43C110.272 18.4 110.322 18.37 110.362 18.34C110.412 18.3 110.442 18.27 110.452 18.25C110.472 18.2 110.477 18.12 110.467 18.01C110.457 17.9 110.452 17.8 110.452 17.71V13.84C109.822 13.46 109.177 13.08 108.517 12.7C107.857 12.32 107.212 11.95 106.582 11.59C105.922 11.95 105.267 12.32 104.617 12.7C103.977 13.08 103.327 13.46 102.667 13.84ZM108.247 15.1C108.247 15.42 108.242 15.735 108.232 16.045C108.222 16.355 108.227 16.67 108.247 16.99C107.977 17.17 107.697 17.34 107.407 17.5C107.127 17.66 106.852 17.82 106.582 17.98C106.292 17.82 106.007 17.665 105.727 17.515C105.457 17.355 105.187 17.195 104.917 17.035C104.897 16.675 104.887 16.35 104.887 16.06C104.887 15.76 104.897 15.44 104.917 15.1C105.167 14.94 105.437 14.775 105.727 14.605C106.027 14.435 106.312 14.27 106.582 14.11C106.852 14.27 107.127 14.43 107.407 14.59C107.697 14.75 107.977 14.92 108.247 15.1ZM106.537 14.155C106.287 14.315 106.027 14.475 105.757 14.635C105.497 14.785 105.232 14.94 104.962 15.1C105.212 15.26 105.477 15.42 105.757 15.58C106.037 15.73 106.312 15.885 106.582 16.045C106.832 15.885 107.092 15.73 107.362 15.58C107.642 15.42 107.907 15.26 108.157 15.1C107.887 14.94 107.622 14.785 107.362 14.635C107.102 14.475 106.827 14.315 106.537 14.155ZM104.917 16.99C105.167 17.13 105.412 17.275 105.652 17.425C105.892 17.565 106.127 17.69 106.357 17.8C106.407 17.82 106.442 17.85 106.462 17.89C106.492 17.92 106.517 17.935 106.537 17.935V16.09C106.287 15.91 106.022 15.745 105.742 15.595C105.462 15.445 105.187 15.28 104.917 15.1V16.99ZM106.582 16.09V17.935C106.852 17.775 107.127 17.62 107.407 17.47C107.687 17.31 107.952 17.15 108.202 16.99C108.202 16.67 108.207 16.355 108.217 16.045C108.227 15.735 108.222 15.42 108.202 15.1C107.932 15.28 107.662 15.445 107.392 15.595C107.122 15.745 106.852 15.91 106.582 16.09ZM122.771 7.45C123.261 7.14 123.801 6.825 124.391 6.505V6.55C124.371 7.5 124.366 8.5 124.376 9.55C124.386 10.59 124.391 11.63 124.391 12.67V19.195C123.461 19.735 122.536 20.265 121.616 20.785C120.706 21.315 119.786 21.85 118.856 22.39C118.176 21.98 117.491 21.575 116.801 21.175C116.121 20.775 115.441 20.385 114.761 20.005C114.511 19.865 114.271 19.73 114.041 19.6C113.821 19.47 113.596 19.335 113.366 19.195V12.85L114.716 12.04C115.416 11.63 116.111 11.235 116.801 10.855C117.501 10.465 118.201 10.08 118.901 9.7C119.531 10.06 120.161 10.43 120.791 10.81C121.431 11.18 122.091 11.545 122.771 11.905V7.45ZM118.856 11.545C118.196 11.925 117.551 12.3 116.921 12.67C116.291 13.04 115.646 13.415 114.986 13.795V18.25C115.646 18.63 116.296 19.01 116.936 19.39C117.586 19.77 118.241 20.14 118.901 20.5C119.531 20.12 120.166 19.745 120.806 19.375C121.456 19.005 122.111 18.63 122.771 18.25V13.795C122.111 13.415 121.456 13.035 120.806 12.655C120.166 12.275 119.516 11.905 118.856 11.545ZM136.666 12.61C135.756 13.15 134.846 13.685 133.936 14.215C133.026 14.735 132.106 15.265 131.176 15.805C130.926 15.645 130.666 15.49 130.396 15.34C130.136 15.18 129.871 15.02 129.601 14.86C130.231 14.48 130.866 14.105 131.506 13.735C132.156 13.365 132.796 12.99 133.426 12.61C133.066 12.38 132.696 12.165 132.316 11.965C131.946 11.755 131.581 11.55 131.221 11.35C130.561 11.71 129.906 12.08 129.256 12.46C128.616 12.84 127.966 13.22 127.306 13.6V18.055C127.966 18.435 128.616 18.81 129.256 19.18C129.906 19.55 130.546 19.925 131.176 20.305C131.836 19.925 132.481 19.55 133.111 19.18C133.741 18.81 134.386 18.435 135.046 18.055L136.666 19C135.756 19.54 134.846 20.07 133.936 20.59C133.026 21.11 132.106 21.63 131.176 22.15C130.266 21.63 129.356 21.105 128.446 20.575C127.536 20.045 126.616 19.52 125.686 19V12.655C126.456 12.205 127.246 11.75 128.056 11.29C128.866 10.82 129.666 10.36 130.456 9.91C130.566 9.84 130.676 9.77 130.786 9.7C130.906 9.62 131.021 9.555 131.131 9.505C131.201 9.485 131.271 9.5 131.341 9.55C131.421 9.59 131.516 9.635 131.626 9.685C132.466 10.185 133.311 10.68 134.161 11.17C135.021 11.65 135.856 12.13 136.666 12.61ZM143.495 9.655C144.175 10.035 144.855 10.425 145.535 10.825C146.225 11.225 146.91 11.63 147.59 12.04C147.82 12.18 148.05 12.31 148.28 12.43C148.52 12.55 148.74 12.69 148.94 12.85C148.67 12.99 148.4 13.135 148.13 13.285C147.87 13.435 147.615 13.59 147.365 13.75C146.705 13.39 146.05 13.025 145.4 12.655C144.76 12.275 144.125 11.905 143.495 11.545C142.835 11.905 142.185 12.275 141.545 12.655C140.915 13.025 140.26 13.39 139.58 13.75C139.67 13.82 139.765 13.885 139.865 13.945C139.975 14.005 140.075 14.06 140.165 14.11C140.845 14.52 141.525 14.92 142.205 15.31C142.895 15.69 143.58 16.085 144.26 16.495C144.85 16.835 145.435 17.17 146.015 17.5C146.605 17.82 147.205 18.16 147.815 18.52C147.995 18.63 148.18 18.745 148.37 18.865C148.57 18.975 148.76 19.085 148.94 19.195C148.03 19.715 147.12 20.24 146.21 20.77C145.31 21.3 144.405 21.825 143.495 22.345C142.565 21.825 141.65 21.3 140.75 20.77C139.85 20.24 138.935 19.715 138.005 19.195C138.255 19.015 138.52 18.855 138.8 18.715C139.08 18.565 139.355 18.41 139.625 18.25C140.255 18.63 140.89 19.005 141.53 19.375C142.18 19.745 142.835 20.12 143.495 20.5C143.855 20.27 144.22 20.05 144.59 19.84C144.97 19.64 145.34 19.425 145.7 19.195C145.54 19.085 145.38 18.99 145.22 18.91C145.07 18.82 144.915 18.72 144.755 18.61C143.625 17.95 142.49 17.305 141.35 16.675C140.22 16.035 139.09 15.375 137.96 14.695C137.96 14.375 137.965 14.06 137.975 13.75C137.985 13.44 137.98 13.14 137.96 12.85C138.89 12.31 139.81 11.775 140.72 11.245C141.64 10.705 142.565 10.175 143.495 9.655Z" fill="#012840"/>
<path d="M24.9485 35.6107H14.4357L5.92984 24.8299L11.2438 18.2456L24.9485 35.6107Z" fill="#053B63"/>
<path d="M24.2174 0L13.0608 14.1356L5.19875 23.9493L0 17.3651L13.7046 0H24.2174Z" fill="#012840"/>
<path d="M22.7866 16.415H33.2993L41.8052 27.1934L36.4912 33.7776L22.7866 16.415Z" fill="#035AA6"/>
<path d="M23.4633 52L34.6199 37.8644L42.4819 28.0507L47.6807 34.6349L33.976 52H23.4633Z" fill="#99D0F2"/>
</svg>
